<svg xmlns="http://www.w3.org/2000/svg" xmlns:xlink="http://www.w3.org/1999/xlink" width="500" zoomAndPan="magnify" viewBox="0 0 375 374.999991" height="500" preserveAspectRatio="xMidYMid meet" version="1.0"><defs><clipPath id="eea57da1ac"><path d="M 124.855469 124.855469 L 250.105469 124.855469 L 250.105469 250.105469 L 124.855469 250.105469 Z M 124.855469 124.855469 " clip-rule="nonzero"/></clipPath></defs><g clip-path="url(#eea57da1ac)"><path fill="#ffde59" d="M 187.472656 127.105469 C 220.8125 127.105469 247.839844 154.136719 247.839844 187.472656 C 247.839844 220.8125 220.8125 247.839844 187.472656 247.839844 C 154.132812 247.839844 127.105469 220.8125 127.105469 187.472656 C 127.105469 154.136719 154.132812 127.105469 187.472656 127.105469 Z M 187.472656 124.851562 C 152.886719 124.851562 124.851562 152.886719 124.851562 187.472656 C 124.851562 222.058594 152.886719 250.09375 187.472656 250.09375 C 222.058594 250.09375 250.09375 222.058594 250.09375 187.472656 C 250.09375 152.886719 222.058594 124.851562 187.472656 124.851562 Z M 217.488281 159.613281 L 217.488281 185.800781 L 210.105469 181.035156 L 196.148438 189.703125 L 193.800781 191.164062 L 192.425781 192.011719 L 192.425781 151.855469 L 176.566406 161.683594 L 176.566406 178.960938 L 172.84375 176.441406 L 172.84375 159.613281 L 196.148438 145.167969 Z M 135.351562 187.472656 C 135.351562 158.6875 158.6875 135.351562 187.472656 135.351562 C 216.257812 135.351562 239.59375 158.6875 239.59375 187.472656 C 239.59375 200.773438 234.601562 212.90625 226.402344 222.117188 L 226.402344 194.359375 L 210.164062 183.367188 L 192.425781 194.359375 L 192.425781 239.351562 C 190.796875 239.507812 189.144531 239.59375 187.472656 239.59375 C 185.800781 239.59375 184.148438 239.507812 182.519531 239.351562 L 182.519531 185.515625 L 166.28125 174.523438 L 148.542969 185.515625 L 148.542969 222.117188 C 140.34375 212.90625 135.351562 200.773438 135.351562 187.472656 Z M 151.375 187.09375 L 163.449219 179.613281 L 163.449219 233.722656 C 159.011719 231.410156 154.949219 228.484375 151.375 225.050781 Z M 195.261719 195.9375 L 207.332031 188.457031 L 207.332031 235.667969 C 203.511719 237.242188 199.46875 238.382812 195.261719 239.011719 Z M 130.128906 187.472656 C 130.128906 219.144531 155.800781 244.816406 187.472656 244.816406 C 219.144531 244.816406 244.816406 219.144531 244.816406 187.472656 C 244.816406 155.804688 219.144531 130.128906 187.472656 130.128906 C 155.800781 130.128906 130.128906 155.804688 130.128906 187.472656 " fill-opacity="1" fill-rule="nonzero"/></g></svg>